<?xml version="1.0" standalone="no"?>
<!DOCTYPE svg PUBLIC "-//W3C//DTD SVG 20010904//EN"
 "http://www.w3.org/TR/2001/REC-SVG-20010904/DTD/svg10.dtd">
<svg version="1.0" xmlns="http://www.w3.org/2000/svg"
 width="500.000000pt" height="500.000000pt" viewBox="0 0 500.000000 500.000000"
 preserveAspectRatio="xMidYMid meet">
<metadata>
Created by potrace 1.16, written by Peter Selinger 2001-2019
</metadata>
<g transform="translate(0.000000,500.000000) scale(0.100000,-0.100000)"
fill="#000000" stroke="none">
<path d="M2459 3999 c-24 -18 -172 -159 -329 -316 -157 -156 -460 -456 -674
-667 l-389 -384 -5 -55 c-2 -30 1 -71 8 -92 9 -28 170 -195 700 -728 l688
-692 49 0 c45 0 54 5 116 57 36 31 201 193 366 360 165 167 449 452 631 633
340 338 369 373 370 446 0 28 -9 44 -47 85 -27 27 -71 74 -98 104 -28 30 -106
109 -175 176 -69 66 -300 299 -515 516 -214 217 -436 439 -492 492 -117 110
-133 115 -204 65z m176 -406 c416 -406 1045 -1036 1045 -1046 0 -10 -263 -280
-510 -523 -258 -255 -335 -331 -385 -385 -119 -126 -241 -229 -272 -229 -20 0
-146 121 -594 568 -313 312 -569 573 -569 579 0 7 17 24 38 38 20 13 84 75
142 137 132 143 847 858 920 921 30 26 59 47 65 47 6 0 60 -48 120 -107z"/>
<path d="M2498 3303 c-1 -5 -32 -33 -68 -64 -106 -91 -150 -138 -150 -157 0
-20 109 -132 129 -132 8 0 31 16 52 35 22 19 44 35 50 35 6 0 29 -20 51 -45
24 -27 48 -45 61 -45 24 0 139 117 135 136 -2 7 -53 64 -115 128 -101 105
-135 130 -145 109z"/>
<path d="M2064 3036 c-35 -16 -44 -32 -44 -82 0 -46 12 -66 68 -116 26 -23 89
-85 140 -137 l92 -96 55 60 c30 33 55 69 55 79 0 19 -26 45 -203 211 -74 69
-106 93 -127 94 -3 0 -19 -6 -36 -13z"/>
<path d="M2654 2803 c-137 -137 -321 -318 -409 -402 -178 -173 -235 -241 -235
-282 0 -42 35 -69 87 -69 49 0 32 -15 467 411 116 114 263 258 327 320 93 91
117 121 123 150 13 70 -23 119 -88 119 -16 0 -93 -70 -272 -247z"/>
<path d="M1858 2673 c-65 -64 -118 -120 -118 -124 0 -4 56 -65 124 -136 l125
-128 70 70 c39 38 71 74 71 80 0 6 -22 33 -50 60 -27 27 -50 54 -49 60 0 5 20
26 44 45 24 19 46 40 48 46 5 12 -119 144 -136 144 -5 0 -63 -53 -129 -117z"/>
<path d="M2993 2741 c-23 -22 -50 -52 -59 -67 -18 -26 -18 -27 12 -51 66 -55
74 -62 74 -73 0 -6 -20 -33 -45 -59 -25 -26 -45 -55 -45 -63 0 -20 104 -118
125 -118 16 0 141 123 203 199 l33 41 -48 51 c-98 104 -178 179 -193 179 -8 0
-34 -18 -57 -39z"/>
<path d="M2663 2412 c-28 -26 -53 -54 -54 -62 -3 -16 282 -310 301 -310 30 0
80 32 95 60 15 30 15 34 -6 78 -23 50 -248 282 -271 282 -7 -1 -36 -22 -65
-48z"/>
<path d="M2347 2101 c-37 -38 -67 -75 -67 -82 0 -11 228 -238 240 -239 3 0 39
35 80 78 41 43 94 93 118 111 23 18 42 41 42 51 0 21 -113 140 -133 140 -8 0
-35 -18 -60 -40 -25 -22 -49 -40 -55 -40 -5 0 -28 20 -51 45 -23 25 -43 45
-45 45 -1 0 -33 -31 -69 -69z"/>
</g>
</svg>
